<svg xmlns="http://www.w3.org/2000/svg" width="681" height="208" fill="none"><g clip-path="url(#a)"><path fill="#000129" d="M432.114 53.07h-37.011c-3.365 0-4.997 1.639-4.997 5.02v35.038c0 3.38 1.632 5.02 4.997 5.02h37.011v18.748h-38.235c-16.823-.102-25.184-8.503-25.184-25.407V59.627c0-16.905 8.361-25.306 25.184-25.306h38.235zM80.353 34.32c16.823 0 25.183 8.402 25.183 25.306v57.167H84.022V58.09c0-3.38-1.63-5.02-4.995-5.02H63.325v63.724H41.913V53.069H21.216v63.725H-.196V34.321zm62.296 82.473h-21.411V34.321h21.411zm99.106-82.473c16.823 0 25.184 8.401 25.184 25.306v57.167h-21.412V58.09c0-3.381-1.631-5.02-4.996-5.02h-15.803v63.724h-21.412V53.069h-20.698v63.725h-21.411V34.321zm86.36 0c16.823 0 25.184 8.402 25.184 25.306v24.075h-49.043v9.323c0 3.381 1.632 5.02 4.996 5.02h44.149v18.749h-45.372c-16.823 0-25.286-8.401-25.286-25.305V59.627c0-16.904 8.36-25.306 25.184-25.306zm159.975 0c16.823 0 25.184 8.401 25.184 25.306v57.167h-42.823c-16.823 0-25.184-8.298-25.184-24.793 0-16.597 8.361-24.793 25.184-24.793h21.411v-9.016c0-3.38-1.631-5.02-4.996-5.02h-37.419v-18.85zm100.023 18.75h-32.015c-3.569 0-5.302 1.947-5.302 5.943 0 4.098 1.529 6.352 4.689 6.864l16.824 2.767c12.949 2.254 19.474 9.835 19.474 22.846 0 16.904-8.36 25.305-25.183 25.305h-37.114V98.046h35.787c3.569 0 5.303-1.947 5.303-5.943 0-4.097-1.53-6.351-4.69-6.864l-16.824-2.765c-13.05-2.152-19.576-9.836-19.576-22.847 0-16.905 8.361-25.306 25.184-25.306h33.443zm38.846-18.748h26.714V53.07h-26.714v39.956c0 3.381 1.632 5.02 4.996 5.02h23.349v18.749h-24.573c-16.823 0-25.183-8.401-25.183-25.305V9.016h21.411zM471.776 84.01c-3.364 0-4.996 1.64-4.996 5.02v3.995c0 3.381 1.632 5.02 4.996 5.02h20.189V84.01zM309.15 53.07c-3.364 0-4.996 1.639-4.996 5.02v8.708h27.734V58.09c0-3.381-1.632-5.02-4.996-5.02zm366.546-18.851c3.161.102 5.71 2.561 5.71 5.634 0 3.176-2.447 5.635-5.71 5.635-3.16 0-5.71-2.459-5.71-5.635 0-3.073 2.55-5.634 5.71-5.634m.102 1.23c-2.447 0-4.384 1.946-4.384 4.404 0 2.46 1.835 4.508 4.384 4.508 2.447 0 4.282-1.946 4.282-4.405s-1.835-4.508-4.282-4.508m-.204 1.535c1.019 0 1.529.206 1.937.41.306.205.51.718.51 1.23 0 .615-.509 1.127-1.121 1.332v.103c.51.205.816.615 1.019 1.332.204.818.306 1.228.408 1.433h-1.427c-.204-.205-.306-.716-.408-1.33s-.408-.924-1.121-.924h-.613v2.254h-1.325V37.19a11 11 0 0 1 2.141-.206m-.102 1.026c-.306 0-.612 0-.714.102v1.536h.613c.713 0 1.325-.204 1.325-.819 0-.512-.408-.82-1.224-.82M143.058 20.9h-22.125V0h22.125z"/></g><path fill="#000129" d="M40.525 148.805v.154l-5.687 34.633c-.358 2.101-1.537 2.613-3.176 2.613h-2.203c-1.435 0-2.51-1.025-2.92-2.562l-5.021-18.956c-.103-.461-.154-.461-.308-.461h-.102c-.154 0-.205 0-.307.461l-5.072 18.956c-.41 1.537-1.486 2.562-2.92 2.562h-2.153c-1.639 0-2.817-.512-3.176-2.613l-5.687-34.633v-.154c0-.512.359-.871.871-.871h2.972c.41 0 .768.307.87.871l4.97 32.635c.103.513.051.769.256.769s.257-.308.359-.769l5.02-18.956c.36-1.383 1.077-2.049 2.409-2.049h3.279c1.332 0 2.049.666 2.408 2.049l5.02 18.956c.103.461.154.769.359.769s.154-.256.256-.769l4.97-32.635c.102-.564.46-.871.87-.871h2.972c.513 0 .871.359.871.871m25.358 23.413c0 .666-.359 1.127-.974 1.127H47.746v.718c0 6.096 2.408 8.351 7.122 8.351 2.971 0 6.762-.205 9.12-.564h.255c.41 0 .82.205.82.717v1.742c0 .666-.205 1.025-1.025 1.179a46.5 46.5 0 0 1-9.17.871c-5.892 0-11.63-2.767-11.63-12.296v-4.611c0-7.327 4.047-11.989 11.374-11.989 7.48 0 11.27 4.714 11.27 11.989zm-4.56-2.305v-.461c0-5.79-2.203-8.044-6.712-8.044-4.406 0-6.865 2.511-6.865 8.044v.461zm41.192 9.017c0 5.226-3.842 7.429-9.58 7.429-1.896 0-5.585-.154-8.095-.769-.666-.154-1.076-.461-1.076-1.025v-1.793c0-.461.41-.768.922-.768h.205c2.46.307 6.2.563 8.043.563 3.33 0 5.073-.871 5.073-3.637 0-1.537-.923-2.511-3.843-4.252l-5.174-3.074c-3.126-1.896-5.226-4.099-5.226-7.327 0-5.328 3.996-6.814 9.273-6.814 2.869 0 5.584.256 7.992.666.666.103.974.461.974 1.025v1.691c0 .614-.359.871-.871.871h-.154c-1.793-.154-5.072-.41-7.941-.41-2.87 0-4.765.358-4.765 2.971 0 1.537 1.179 2.511 3.535 3.894l5.072 3.023c4.253 2.51 5.636 4.713 5.636 7.736m27.759-6.712c0 .666-.359 1.127-.973 1.127h-17.163v.718c0 6.096 2.408 8.351 7.121 8.351 2.971 0 6.763-.205 9.119-.564h.257c.409 0 .819.205.819.717v1.742c0 .666-.205 1.025-1.024 1.179a46.5 46.5 0 0 1-9.171.871c-5.892 0-11.63-2.767-11.63-12.296v-4.611c0-7.327 4.047-11.989 11.374-11.989 7.48 0 11.271 4.714 11.271 11.989zm-4.56-2.305v-.461c0-5.79-2.203-8.044-6.711-8.044-4.406 0-6.865 2.511-6.865 8.044v.461zm28.124 14.755c0 .666-.205.973-1.024 1.127a37 37 0 0 1-6.404.564c-6.968 0-10.913-4.919-10.913-12.45v-3.996c0-7.531 3.894-12.45 10.913-12.45 2.356 0 4.713.256 6.404.564.819.154 1.024.41 1.024 1.127v1.844c0 .513-.409.769-.871.769h-.205c-2.254-.256-3.842-.359-6.352-.359-4.099 0-6.405 2.716-6.405 8.505v3.996c0 5.738 2.255 8.505 6.405 8.505 2.51 0 4.098-.103 6.352-.359h.205c.462 0 .871.256.871.769zm27.315.307c0 .564-.41 1.025-.973 1.025h-2.562c-.564 0-.973-.461-.973-1.025v-.973c-2.818 1.588-5.124 2.357-8.146 2.357-6.148 0-8.915-3.843-8.915-10.657v-16.855c0-.564.461-1.025 1.025-1.025h2.459c.563 0 1.025.461 1.025 1.025v16.855c0 5.175 1.741 6.763 5.635 6.763 2.152 0 4.56-.82 6.917-1.998v-21.62c0-.513.461-1.025 1.024-1.025h2.511c.512 0 .973.461.973 1.025zm19.604-24.489c0 .564-.359.871-1.076.871-2.357 0-4.508.615-7.07 2.152v21.466c0 .513-.461 1.025-1.025 1.025h-2.51c-.513 0-.974-.461-.974-1.025v-26.128c0-.564.41-1.025.974-1.025h2.408c.563 0 .973.461.973 1.025v1.075c2.562-1.793 4.919-2.459 7.224-2.459q1.076 0 1.076.922zm25.329 11.732c0 .666-.359 1.127-.974 1.127h-17.163v.718c0 6.096 2.408 8.351 7.121 8.351 2.972 0 6.763-.205 9.12-.564h.256c.41 0 .82.205.82.717v1.742c0 .666-.205 1.025-1.025 1.179-2.92.563-5.738.871-9.171.871-5.891 0-11.629-2.767-11.629-12.296v-4.611c0-7.327 4.047-11.989 11.373-11.989 7.48 0 11.272 4.714 11.272 11.989zm-4.56-2.305v-.461c0-5.79-2.203-8.044-6.712-8.044-4.406 0-6.865 2.511-6.865 8.044v.461zm44.932 15.062c0 .564-.461 1.025-1.025 1.025h-2.459a1.03 1.03 0 0 1-1.025-1.025V168.12c0-5.124-2.151-6.712-5.482-6.712-1.588 0-4.815.41-7.07 1.435v22.132c0 .513-.461 1.025-1.024 1.025h-2.511c-.512 0-.973-.461-.973-1.025v-36.477c0-.564.41-1.025.973-1.025h2.562c.563 0 .973.461.973 1.025v10.553c2.459-1.075 5.636-1.588 7.839-1.588 5.431 0 9.222 3.125 9.222 10.657zm28.518 0c0 .564-.41 1.025-.973 1.025h-2.562c-.563 0-.973-.461-.973-1.025v-.973c-2.818 1.588-5.124 2.357-8.146 2.357-6.148 0-8.915-3.843-8.915-10.657v-16.855c0-.564.461-1.025 1.025-1.025h2.459c.564 0 1.025.461 1.025 1.025v16.855c0 5.175 1.742 6.763 5.635 6.763 2.152 0 4.56-.82 6.917-1.998v-21.62c0-.513.461-1.025 1.024-1.025h2.511c.512 0 .973.461.973 1.025zm40.866 0c0 .564-.461 1.025-1.025 1.025h-2.459a1.03 1.03 0 0 1-1.025-1.025v-18.136c0-4.304-1.998-5.482-4.662-5.482-1.844 0-3.996.615-5.994 1.383q.46 1.69.461 3.996v18.239c0 .513-.359 1.025-.922 1.025H317.5c-.512 0-.871-.461-.871-1.025v-18.239c0-4.457-1.281-5.379-3.945-5.379-1.844 0-4.098.922-6.25 1.998v21.62c0 .513-.359 1.025-.922 1.025h-2.716c-.512 0-.871-.461-.871-1.025v-26.128c0-.564.41-1.025.974-1.025h2.561c.564 0 .974.461.974 1.025v.973c2.049-1.281 4.662-2.408 7.48-2.408 2.203 0 3.842.615 5.123 2.101 2.818-1.332 5.841-2.101 8.505-2.101 4.611 0 8.3 2.306 8.3 9.427zm26.582 0c0 .564-.461 1.025-1.025 1.025h-2.356a1.03 1.03 0 0 1-1.025-1.025v-1.127c-2.459 1.435-5.021 2.511-7.89 2.511-4.355 0-8.351-1.896-8.351-8.3v-.615c0-5.533 3.228-8.3 12.347-8.3h3.791v-2.049c0-4.304-1.485-5.789-5.482-5.789-3.33 0-5.789.205-7.838.41h-.256c-.461 0-.923-.154-.923-.82v-1.793c0-.564.359-.871 1.076-.974 2.101-.358 4.458-.666 7.941-.666 7.122 0 9.991 3.587 9.991 9.632zm-4.509-4.354v-8.249h-3.791c-6.199 0-7.838 1.383-7.838 5.021v.615c0 3.688 1.741 4.662 4.713 4.662 2.357 0 4.457-.717 6.916-2.049m33.023 4.354c0 .564-.461 1.025-1.025 1.025h-2.459a1.03 1.03 0 0 1-1.025-1.025V168.12c0-5.175-1.742-6.763-5.635-6.763-2.152 0-4.56.82-6.917 1.998v21.62c0 .513-.461 1.025-1.024 1.025h-2.511c-.512 0-.973-.461-.973-1.025v-26.128c0-.564.41-1.025.973-1.025h2.562c.563 0 .973.461.973 1.025v.973c2.818-1.588 5.124-2.357 8.146-2.357 6.148 0 8.915 3.843 8.915 10.657zm24.778-6.045c0 5.226-3.842 7.429-9.58 7.429-1.896 0-5.585-.154-8.095-.769-.666-.154-1.076-.461-1.076-1.025v-1.793c0-.461.41-.768.922-.768h.205c2.459.307 6.199.563 8.044.563 3.33 0 5.072-.871 5.072-3.637 0-1.537-.923-2.511-3.843-4.252l-5.174-3.074c-3.126-1.896-5.226-4.099-5.226-7.327 0-5.328 3.996-6.814 9.273-6.814 2.869 0 5.584.256 7.992.666.666.103.974.461.974 1.025v1.691c0 .614-.359.871-.871.871h-.154c-1.793-.154-5.072-.41-7.941-.41s-4.765.358-4.765 2.971c0 1.537 1.179 2.511 3.535 3.894l5.072 3.023c4.253 2.51 5.636 4.713 5.636 7.736m11.211 1.025c0 .102-.051.256-.103.409l-3.842 9.683c-.256.666-.41.974-.973.974h-2.101c-.41 0-.615-.256-.615-.615 0-.102 0-.256.051-.359l2.921-9.683c.205-.666.461-.973 1.024-.973h2.972c.41 0 .666.205.666.564m39.19 4.354c0 .666-.154 1.025-1.076 1.179-3.176.614-6.302.871-9.427.871-7.634 0-11.169-4.97-11.169-12.655v-3.689c0-8.043 3.689-12.552 11.169-12.552 1.588 0 3.996.154 5.994.513v-9.53c0-.512.41-.973.974-.973h2.613c.512 0 .922.41.922.973zm-4.509-2.203v-20.339c-1.69-.308-4.354-.359-5.994-.359-5.021 0-6.66 3.125-6.66 8.607v3.689c0 5.584 1.588 8.71 6.66 8.71 1.742 0 4.252-.154 5.994-.308m31.1 2.869c0 .564-.462 1.025-1.025 1.025h-2.357a1.03 1.03 0 0 1-1.025-1.025v-1.127c-2.459 1.435-5.02 2.511-7.889 2.511-4.355 0-8.351-1.896-8.351-8.3v-.615c0-5.533 3.227-8.3 12.347-8.3h3.791v-2.049c0-4.304-1.486-5.789-5.482-5.789-3.33 0-5.789.205-7.839.41h-.256c-.461 0-.922-.154-.922-.82v-1.793c0-.564.359-.871 1.076-.974 2.101-.358 4.457-.666 7.941-.666 7.121 0 9.991 3.587 9.991 9.632zm-4.509-4.354v-8.249h-3.791c-6.199 0-7.839 1.383-7.839 5.021v.615c0 3.688 1.742 4.662 4.714 4.662 2.356 0 4.457-.717 6.916-2.049m25.163 4.611c0 .461-.257.768-.923.87a25 25 0 0 1-3.33.257c-4.713 0-6.967-1.23-6.967-6.866v-17.88l-4.97-.563c-.564-.052-.973-.359-.973-.923v-1.383c0-.563.409-.922.973-.922h4.97v-5.021c0-.512.358-.922.922-1.025l2.664-.409h.154c.409 0 .768.358.768.871v5.584h5.533c.564 0 1.025.461 1.025 1.025v1.741c0 .564-.461 1.025-1.025 1.025h-5.533v17.88c0 2.818.717 3.228 2.767 3.228h2.869c.717 0 1.076.205 1.076.717zm24.374-.257c0 .564-.461 1.025-1.024 1.025h-2.357a1.03 1.03 0 0 1-1.025-1.025v-1.127c-2.459 1.435-5.02 2.511-7.889 2.511-4.355 0-8.351-1.896-8.351-8.3v-.615c0-5.533 3.227-8.3 12.347-8.3h3.791v-2.049c0-4.304-1.486-5.789-5.482-5.789-3.33 0-5.789.205-7.839.41h-.256c-.461 0-.922-.154-.922-.82v-1.793c0-.564.359-.871 1.076-.974 2.1-.358 4.457-.666 7.941-.666 7.121 0 9.99 3.587 9.99 9.632zm-4.508-4.354v-8.249h-3.791c-6.2 0-7.839 1.383-7.839 5.021v.615c0 3.688 1.742 4.662 4.713 4.662 2.357 0 4.458-.717 6.917-2.049m53.468 4.815a.57.57 0 0 1-.564.564h-3.535c-.461 0-.615-.154-.819-.359l-2.562-2.766c-2.511 2.152-5.892 3.484-10.093 3.484-6.25 0-12.552-2.408-12.552-9.376v-.41c0-4.252 2.203-6.814 7.377-10.093l-.358-.41c-4.816-5.533-5.328-7.685-5.328-9.939v-.41c0-5.43 4.149-8.146 10.759-8.146 5.686 0 10.195 2.716 10.195 8.146v.41c0 3.433-1.383 5.79-7.839 10.144l-1.434.974 9.273 9.99c1.383-2.459 1.998-5.635 1.998-9.017v-.717c0-.564.256-.82.82-.82h2.203c.563 0 .871.256.871.82v.717c0 4.457-1.076 8.607-3.228 11.784l4.56 4.867c.205.205.256.41.256.563m-11.732-29.305v-.41c0-3.381-2.408-4.713-5.943-4.713-3.894 0-6.558 1.178-6.558 4.713v.41c0 1.793.256 3.177 4.355 7.685l.512.564 1.742-1.076c4.969-3.074 5.892-4.355 5.892-7.173m1.793 24.08-10.196-10.913c-4.098 2.562-5.277 4.15-5.277 7.275v.41c0 4.15 3.689 5.841 7.839 5.841 3.279 0 5.789-1.025 7.634-2.613m55.424 4.969c0 .461-.308.82-.871.82h-3.023c-.461 0-.769-.359-.871-.768l-3.33-11.784h-13.269l-3.279 11.784c-.103.409-.513.768-.923.768h-3.022c-.513 0-.871-.359-.871-.82 0-.102 0-.256.051-.358l9.478-33.353c.871-3.125 3.279-3.894 5.226-3.894 1.895 0 4.303.718 5.174 3.843l9.478 33.404c.052.102.052.256.052.358m-9.069-15.779-4.662-16.856c-.153-.564-.461-.922-.973-.922-.564 0-.871.358-1.025.922l-4.662 16.856zm19.715 15.574c0 .513-.358 1.025-.922 1.025h-2.818c-.512 0-.922-.461-.922-1.025v-36.068c0-.512.359-.973.922-.973h2.818c.513 0 .922.41.922.973zm12.173-.051c0 .564-.409 1.025-.973 1.025h-2.459c-.512 0-.974-.461-.974-1.025v-4.765c0-.512.41-.973.974-.973h2.459c.512 0 .973.41.973.973z"/><defs><clipPath id="a"><path fill="#fff" d="M0 0h681v117H0z"/></clipPath></defs></svg>