<svg xmlns="http://www.w3.org/2000/svg" viewBox="0 0 64 64">
  <defs>
    <radialGradient id="g" cx="50%" cy="40%" r="60%">
      <stop offset="0%" stop-color="#34d399"/>
      <stop offset="60%" stop-color="#10b981"/>
      <stop offset="100%" stop-color="#065f46"/>
    </radialGradient>
  </defs>
  <circle cx="32" cy="32" r="30" fill="url(#g)"/>
  <path d="M12 34c6-2 11-8 17-9 7-1 10 5 17 6 3 1 6 1 8 1-3 8-10 15-20 18-10-1-17-6-22-16z" fill="#0b2f2a" opacity=".55"/>
  <path d="M16 25c4-3 9-5 14-5 4 0 8 1 11 3-2 3-5 5-8 7-4 2-9 4-13 5-3-2-4-6-4-10z" fill="#bbf7d0" opacity=".5"/>
</svg>
